<svg preserveAspectRatio="none" overflow="visible" style="display: block;" width="1512" height="420.673" viewBox="0 0 1512 420.673" fill="none" xmlns="http://www.w3.org/2000/svg">
<g id="Bisel azul gris &#194;&#183; fondo" filter="url(#filter0_dd_0_29)">
<path d="M1083.5 181.673C960.171 213.805 741 8.17301 514 59.173C148.5 158.173 36 158.173 36 158.173V393.673H1476V66.6729C1476 66.6729 1430.01 60.2856 1319 91.9701C1259.89 108.841 1214 147.673 1083.5 181.673Z" fill="#B5C7DB" shape-rendering="crispEdges"/>
<path d="M1083.5 181.673C960.171 213.805 741 8.17301 514 59.173C148.5 158.173 36 158.173 36 158.173V393.673H1476V66.6729C1476 66.6729 1430.01 60.2856 1319 91.9701C1259.89 108.841 1214 147.673 1083.5 181.673Z" stroke="#DBE8F5" stroke-opacity="0.9" stroke-width="2" shape-rendering="crispEdges"/>
</g>
<defs>
<filter id="filter0_dd_0_29" x="0" y="-1.37091e-06" width="1512" height="420.673" filterUnits="userSpaceOnUse" color-interpolation-filters="sRGB">
<feFlood flood-opacity="0" result="BackgroundImageFix"/>
<feColorMatrix in="SourceAlpha" type="matrix" values="0 0 0 0 0 0 0 0 0 0 0 0 0 0 0 0 0 0 127 0" result="hardAlpha"/>
<feOffset dy="10"/>
<feGaussianBlur stdDeviation="8"/>
<feColorMatrix type="matrix" values="0 0 0 0 0.02 0 0 0 0 0.08 0 0 0 0 0.18 0 0 0 0.25 0"/>
<feBlend mode="normal" in2="BackgroundImageFix" result="effect1_dropShadow_0_29"/>
<feColorMatrix in="SourceAlpha" type="matrix" values="0 0 0 0 0 0 0 0 0 0 0 0 0 0 0 0 0 0 127 0" result="hardAlpha"/>
<feOffset dy="-15"/>
<feGaussianBlur stdDeviation="17.5"/>
<feComposite in2="hardAlpha" operator="out"/>
<feColorMatrix type="matrix" values="0 0 0 0 0.000961304 0 0 0 0 1 0 0 0 0 0.900096 0 0 0 0.25 0"/>
<feBlend mode="normal" in2="effect1_dropShadow_0_29" result="effect2_dropShadow_0_29"/>
<feBlend mode="normal" in="SourceGraphic" in2="effect2_dropShadow_0_29" result="shape"/>
</filter>
</defs>
</svg>
