<?xml version="1.0" encoding="UTF-8" standalone="no"?>
<!DOCTYPE svg PUBLIC "-//W3C//DTD SVG 1.1//EN" "http://www.w3.org/Graphics/SVG/1.1/DTD/svg11.dtd">
<svg width="100%" height="100%" viewBox="0 0 1465 631" version="1.1" xmlns="http://www.w3.org/2000/svg" xmlns:xlink="http://www.w3.org/1999/xlink" xml:space="preserve" xmlns:serif="http://www.serif.com/" style="fill-rule:evenodd;clip-rule:evenodd;stroke-linejoin:round;stroke-miterlimit:2;">
    <g transform="matrix(1.430664,0,0,1.430664,0,0)">
        <path d="M616.499,397.1C573.543,397.11 80.95,397.221 79.54,397.087C77.231,396.868 77.599,395.613 77.599,355.5C77.599,347.907 76.811,342.479 79.384,342.004C80.082,341.875 80.07,341.888 603.5,341.888C616.667,341.888 620.865,340.957 620.882,344.493C620.901,348.578 621.112,392.868 620.835,395.566C620.701,396.864 616.867,397.079 616.499,397.1Z" style="fill:rgb(23,46,86);"/>
        <path d="M238.881,242.504C238.865,319.577 239.104,320.336 237.588,320.782C235.662,321.35 235.613,320.924 212.497,320.875C208.601,320.867 209.553,318.636 209.553,299.5C209.553,206.858 209.583,206.85 209.357,206.646C208.73,206.08 208.553,206.359 199.641,210.785C197.503,211.846 184.789,219.297 179.471,221.443C179.039,221.618 179.414,222.158 174.446,224.39C173.026,225.027 173.364,225.517 158.606,235.682C156.673,237.013 152.379,242.756 148.758,244.956C143.984,247.857 130.425,261.33 126.424,273.459C125.614,275.915 116.062,271.675 122.791,265.861C125.949,263.134 127.494,255.541 138.754,245.788C140.78,244.034 149.045,234.836 149.919,233.864C155.314,227.86 156.011,224.171 162.597,219.666C168.567,215.583 186.346,197.949 189.598,195.635C190.268,195.159 190.715,195.944 198.502,190.502C202.367,187.802 202.55,188.217 206.392,185.344C212.109,181.069 209.198,179.508 209.568,158.504C209.624,155.326 212.258,156.103 230.5,156.104C231.871,156.104 238.827,154.964 238.877,158.477C238.894,159.678 237.527,169.821 241.589,167.693C249.003,163.807 248.886,163.783 256.603,160.752C257.238,160.503 257.135,160.467 264.295,157.072C268.574,155.042 267.943,154.08 272.398,152.223C273.302,151.847 281.06,146.471 281.803,145.956C284.6,144.018 284.378,143.699 287.528,142.57C293.427,140.455 300.69,121.499 301.462,119.484C309.447,98.642 302.152,83.204 300.06,75.627C299.845,74.85 294.304,64.859 294.22,64.772C290.498,60.924 286.471,54.646 276.721,49.104C274.702,47.956 274.4,46.636 272.646,46.081C266.617,44.173 267.298,42.993 267.603,42.61C267.741,42.436 275.788,41.595 276.501,41.521C278.132,41.35 278.043,41.743 291.357,45.947C293.054,46.483 308.638,57.446 312.763,63.324C316.16,68.164 319.512,66.11 323.991,80.334C324.851,83.068 325.49,82.711 326.225,85.58C326.706,87.457 330.434,93.286 330.86,96.435C330.972,97.259 334.889,108.731 330.694,129.543C330.579,130.115 330.427,129.975 328.101,136.361C327.385,138.325 320.743,150.553 320.116,151.113C313.691,156.85 305.011,167.596 298.572,168.879C294.751,169.641 295.853,171.524 292.35,173.151C277.225,180.177 277.378,180.332 261.459,185.382C257.828,186.533 258.17,187.245 254.416,188.168C247.14,189.959 247.605,191.045 240.422,193.259C238.454,193.866 237.377,200.031 241.507,200.102C279.112,200.748 292.005,195.687 304.35,213.601C304.519,213.847 307.35,220.457 307.65,221.454C308.202,223.288 308.136,223.335 308.136,308.5C308.136,313.69 309.277,320.855 305.513,320.881C280.445,321.056 280.109,321.88 278.658,320.296C276.183,317.594 280.605,238.993 276.122,232.834C274.968,231.248 274.678,230.586 248.501,230.795C236.346,230.892 239.002,239.402 238.881,242.504Z" style="fill:rgb(23,46,86);"/>
        <path d="M659.498,397.039C655.623,396.688 653.762,398.315 653.718,394.492C653.706,393.524 653.695,232.294 653.722,231.505C653.935,225.411 657.438,207.687 666.396,204.215C678.91,199.365 679.233,200.107 717.5,200.105C722.33,200.105 729.451,198.848 741.423,204.661C742.331,205.102 742.399,205.03 748.307,211.658C753.518,217.503 753.564,230.78 753.57,232.5C753.784,293.4 754.453,293.59 752.576,298.529C745.49,317.171 734.658,318.379 730.604,319.852C723.175,322.552 686.445,319.468 684.537,321.525C683.414,322.735 685.137,395.135 683.58,396.605C682.86,397.284 680.569,396.733 659.498,397.039ZM713.501,289.93C716.391,289.731 717.253,291.029 722.16,285.237C722.868,284.401 723.144,284.286 723.085,240.503C723.069,229.022 716.42,230.713 694.501,230.795C688.021,230.819 688.212,232.089 684.836,237.67C683.72,239.516 683.935,281.88 684.723,283.422C688.831,291.47 692.346,289.929 713.501,289.93Z" style="fill:rgb(23,46,87);"/>
        <path d="M622.049,313.5C621.89,318.526 623.56,320.849 618.502,320.88C593.553,321.032 593.174,321.872 591.814,320.225C591.046,319.295 591.42,319.096 591.432,251.5C591.433,241.77 593.631,230.918 582.495,230.802C573.313,230.706 561.527,228.526 561.46,241.5C561.063,318.881 562.444,320.769 559.541,320.861C557.374,320.93 534.484,321.658 532.444,320.612C531.481,320.118 531.606,319.711 531.607,251.5C531.607,243.239 533.524,230.893 523.493,230.805C508,230.668 504.522,229.204 501.526,240.503C501.03,242.374 502.436,283.644 502.446,309.5C502.449,316.767 503.601,320.846 499.517,320.879C473.661,321.086 472.613,321.808 472.134,319.669C471.903,318.636 471.472,224.939 472.372,221.468C472.815,219.761 475.714,208.575 485.693,203.894C495.352,199.363 495.654,200.093 522.5,200.106C545.306,200.116 545.948,212.537 548.077,210.072C548.126,210.016 549.117,207.475 550.814,205.829C560.138,196.78 601.211,200.183 603.526,201.448C613.782,207.051 613.076,207.981 613.544,208.457C622.817,217.871 622.153,221.374 622.156,236.5C622.121,262.167 622.085,287.833 622.049,313.5Z" style="fill:rgb(23,46,86);"/>
        <path d="M933.5,397.105C716.032,397.059 715.484,397.383 714.943,396.264C714.826,396.022 714.083,342.969 715.344,342.314C715.519,342.222 715.538,341.839 927.5,341.889C928.22,341.889 935.879,341.891 936.485,342.514C937.931,344 937.001,390.351 936.918,394.51C936.857,397.558 935.219,396.966 933.5,397.105Z" style="fill:rgb(22,46,86);"/>
        <path d="M885.002,300.406C877.096,323.75 856.35,320.867 838.5,320.867C823.829,320.867 786.321,325.984 785.764,292.492C785.106,252.99 787.311,251.454 799.473,244.451C812.04,237.215 826.542,241.365 853.49,240.376C857.66,240.223 856.079,230.958 852.554,230.311C845.094,228.941 788.202,230.993 786.835,229.17C786.277,228.424 785.427,201.042 787.385,200.267C788.459,199.842 842.275,200.162 849.5,200.071C890.433,199.551 885.571,222.839 885.571,247.5C885.571,291.541 885.635,291.486 885.002,300.406ZM827.5,269.065C824.237,269.119 819.477,267.935 816.92,272.679C815.894,274.583 816.418,284.109 816.518,284.496C818.159,290.841 821.817,291.363 847.514,290.838C857.628,290.632 855.725,278.756 855.596,274.489C855.391,267.731 844.004,269.063 827.5,269.065Z" style="fill:rgb(217,31,39);"/>
        <path d="M340.875,260.551C343.446,248.841 351.009,246.248 351.167,246.11C361.417,237.136 383.337,241.228 407.48,240.347C409.833,240.261 409.981,232.919 407.325,230.734C404.677,228.555 343.017,230.723 341.506,229.489C339.865,228.149 340.732,201.24 340.98,200.836C341.433,200.102 348.816,200.104 349.5,200.105C420.499,200.125 430.623,197.677 437.484,216.505C440.345,224.354 439.747,227.227 439.781,286.5C439.786,296.905 439.224,296.827 435.853,306.637C431.847,318.296 416.478,320.882 410.498,320.88C366.272,320.864 352.947,323.428 342.955,305.208C341.235,302.073 338.32,296.759 340.875,260.551ZM402.515,269.04C400.429,269.029 381.917,268.927 376.435,269.082C369.28,269.284 370.966,279.237 371.032,283.527C371.166,292.221 380.803,291.084 399.5,290.951C399.502,290.951 409.104,292.744 409.064,282.494C409.036,275.201 410.321,269.441 402.515,269.04Z" style="fill:rgb(23,47,87);"/>
        <path d="M100.554,161.913C110.77,161.068 110.725,161.171 147.501,161.171C179.284,161.171 180.56,160.65 181.193,163.523C181.247,163.767 181.302,191.663 181.178,192.471C180.714,195.519 179.122,194.859 156.5,194.859C115.311,194.859 111.53,193.594 110.576,201.508C110.331,203.536 110.447,272.911 110.516,274.499C111.165,289.555 118.729,285.075 177.5,285.582C183.532,285.635 181.241,288.529 181.239,294.5C181.23,317.005 181.725,320.19 179.586,320.764C177.602,321.297 114.185,320.911 108.498,320.877C99.398,320.821 87.022,313.32 83.866,309.211C79.473,303.489 80.246,303.112 79.238,301.674C74.657,295.145 75.327,290.67 75.327,245.5C75.327,177.839 72.176,167.677 100.554,161.913Z" style="fill:rgb(23,46,87);"/>
        <path d="M930.496,156.068C935.214,156.113 935.185,156.084 935.591,156.117C937.487,156.266 937.471,161.044 937.469,161.5C937.1,272.308 938.315,319.003 936.478,320.464C934.788,321.808 934.593,321.065 909.486,320.866C909.286,320.865 906.794,321.133 906.701,318.481C906.63,316.451 906.641,161.42 906.686,158.511C906.736,155.379 908.452,156.066 930.496,156.068Z" style="fill:rgb(217,33,40);"/>
        <path d="M218.396,103.226L219.5,104.367L220.5,104.142L221.5,104.109L222.991,104.5C225.355,105.382 225.268,105.67 226.495,105.399C226.495,105.399 229.26,104.406 229.5,104.32L230.5,104.301L231.5,104.458L232.637,103.062C236.324,104.448 236.388,104.278 237.132,104.952C238.72,106.393 238.251,106.759 239.893,108.079C247.877,114.494 248.453,126.781 246.328,130.417C242.707,136.611 242.978,136.758 238.19,142.177C237.474,142.988 232.803,143.313 232.482,143.438C231.662,143.755 225.665,146.076 221.528,144.403C216.248,142.269 215.648,144.143 213.558,142.398C202.423,133.103 200.013,111.889 218.396,103.226Z" style="fill:rgb(216,32,40);"/>
        <path d="M206.487,387.087C205.316,387.014 197.25,386.512 192.593,382.384C187.062,377.482 187.147,370.621 187.161,369.502C187.485,343.242 214.059,349.374 217.49,354.507C218.409,355.881 224.279,361.052 222.111,374.439C221.699,376.984 217.531,382.222 216.217,383.094C211.705,386.088 211.815,386.424 206.487,387.087Z" style="fill:rgb(246,249,250);"/>
        <path d="M579.95,369.507C579.75,375.423 578.75,375.109 576.706,380.58C573.628,388.815 546.209,393.201 546.181,369.5C546.156,349.382 557.487,349.871 566.525,350.284C572.954,350.577 575.546,354.123 576.044,354.804C578.105,357.623 579.4,362.753 579.583,363.48C579.917,364.802 579.783,364.798 579.95,369.507Z" style="fill:rgb(245,248,249);"/>
        <path d="M430.503,387.095C408.658,385.333 407.683,364.402 417.405,354.408C424.058,347.567 435.945,351.029 437.505,351.484C442.291,352.878 441.45,354.015 443.567,357.462C446.485,362.211 438.518,362.617 436.426,359.553C431.089,351.737 420.616,358.579 419.889,364.568C418.441,376.508 422.849,377.356 425.178,378.977C432.532,384.097 437.787,376.626 437.799,376.576C438.799,372.618 436.616,373.436 432.533,373.252C429.223,373.103 430.655,368.737 430.735,368.634C431.874,367.148 444.362,367.91 444.728,368.034C446.452,368.618 446.517,380.403 444.799,381.834C439.809,385.992 431.713,386.952 430.503,387.095Z" style="fill:rgb(246,249,250);"/>
        <path d="M366.927,383.507C366.805,384.617 367.437,386.445 364.499,386.47C341.731,386.667 341.194,387.367 340.295,385.65C339.102,383.373 339.442,383.268 339.861,353.52C339.906,350.328 341.449,350.379 363.5,350.527C367.336,350.552 367.935,356.488 363.5,356.504C353.95,356.538 347.312,355.683 347.134,358.43C346.816,363.325 346.554,364.92 351.499,365.011C362.173,365.207 364.825,362.443 365.11,367.504C365.346,371.7 363.634,371.006 359.501,370.967C353.091,370.905 347.164,370.034 347.099,373.479C347.011,378.078 345.911,380.007 350.502,380.043C350.68,380.044 364.128,380.045 364.52,380.061C367.714,380.196 366.868,383.163 366.927,383.507Z" style="fill:rgb(243,246,247);"/>
        <path d="M111.052,369.504C111.972,342.586 137.778,349.731 140.71,355.378C144.957,363.557 135.416,361.699 135.368,361.609C130.929,353.251 121.48,355.244 119.873,363.585C117.257,377.167 124.206,379.225 125.654,380.192C129.654,382.861 135.028,374.805 136.544,374.759C137.145,374.741 145.757,374.479 140.229,381.307C131.845,391.664 111.883,387.698 111.052,369.504Z" style="fill:rgb(246,249,249);"/>
        <path d="M552.937,365.55C557.587,347.831 571.625,360.059 571.763,360.36C574.635,366.598 572.936,372.518 572.644,373.533C570.196,382.058 561.062,380.54 560.552,380.337C550.435,376.327 552.943,367.398 552.937,365.55Z" style="fill:rgb(24,48,87);"/>
        <path d="M212.977,361.389C215.683,367.556 215.288,370.616 212.712,376.613C208.616,386.148 189.382,377.395 196.427,362.467C200.321,354.213 210.884,353.872 212.977,361.389Z" style="fill:rgb(25,48,88);"/>
        <path d="M294.968,383.504C294.877,384.37 295.704,386.458 292.5,386.474C269.67,386.593 268.694,386.46 268.644,384.488C268.578,381.935 267.874,354.66 268.749,352.571C269.308,351.235 275.844,348.529 275.849,354.496C275.867,377.798 275.041,380.001 278.507,380.062C285.577,380.186 285.512,379.839 292.516,380.052C295.75,380.15 294.891,383.063 294.968,383.504Z" style="fill:rgb(249,253,252);"/>
        <path d="M499.559,377.5C499.527,384.088 500.986,387.287 494.506,386.453C492.125,386.146 492.285,384.961 492.753,356.5C492.831,351.754 492.714,350.23 497.496,350.54C500.123,350.71 499.559,353.153 499.559,377.5Z" style="fill:rgb(250,253,252);"/>
        <path d="M218.396,103.226C225.283,101.704 225.344,100.97 232.637,103.062L231.5,104.458L230.5,104.301L229.5,104.32C229.26,104.406 226.495,105.399 226.495,105.399C225.268,105.67 225.355,105.382 222.991,104.5L221.5,104.109L220.5,104.142L219.5,104.367L218.396,103.226Z" style="fill:rgb(201,52,58);"/>
    </g>
</svg>
