<svg preserveAspectRatio="none" overflow="visible" style="display: block;" width="45" height="45" viewBox="0 0 45 45" fill="none" xmlns="http://www.w3.org/2000/svg">
<g id="BotonIzquierdo">
<circle id="Ellipse 28" cx="22.5" cy="22.5" r="22.5" fill="white" fill-opacity="0.1"/>
<g id="Polygon 15" filter="url(#filter1_d_0_4)">
<path d="M9.53379 23.9523C8.70058 23.1634 8.70059 21.8366 9.53379 21.0477L23.3749 7.9422C24.6497 6.73513 26.75 7.63887 26.75 9.39448L26.75 35.6055C26.75 37.3611 24.6497 38.2649 23.3749 37.0578L9.53379 23.9523Z" fill="white"/>
<path d="M9.87793 23.5889C9.25303 22.9972 9.25302 22.0028 9.87793 21.4111L23.7188 8.30566C24.6749 7.40037 26.25 8.07782 26.25 9.39453L26.25 35.6055C26.25 36.9222 24.6749 37.5996 23.7188 36.6943L9.87793 23.5889Z" stroke="#C0C0C0"/>
</g>
</g>
<defs>
<filter id="filter1_d_0_4" x="6.90889" y="7.3905" width="21.8411" height="34.219" filterUnits="userSpaceOnUse" color-interpolation-filters="sRGB">
<feFlood flood-opacity="0" result="BackgroundImageFix"/>
<feColorMatrix in="SourceAlpha" type="matrix" values="0 0 0 0 0 0 0 0 0 0 0 0 0 0 0 0 0 0 127 0" result="hardAlpha"/>
<feOffset dy="2"/>
<feGaussianBlur stdDeviation="1"/>
<feComposite in2="hardAlpha" operator="out"/>
<feColorMatrix type="matrix" values="0 0 0 0 0 0 0 0 0 0 0 0 0 0 0 0 0 0 0.25 0"/>
<feBlend mode="normal" in2="BackgroundImageFix" result="effect1_dropShadow_0_4"/>
<feBlend mode="normal" in="SourceGraphic" in2="effect1_dropShadow_0_4" result="shape"/>
</filter>
</defs>
</svg>
